<?xml version="1.0" encoding="utf-8"?>
<svg width="1024" height="1024" viewBox="0 0 1024 1024" fill="none" xmlns="http://www.w3.org/2000/svg">
  <g>
    <path d="M1012 0C1018.63 0 1024 5.37168 1024 12L1024 1012C1024 1018.63 1018.63 1024 1012 1024L12 1024C5.37168 1024 0 1018.63 0 1012L0 12C0 5.37168 5.37168 0 12 0L1012 0Z" fill="#F4F4F9" />
    <g transform="translate(89 89)">
      <path d="M262 0C268.628 0 274 5.37168 274 12L274 262C274 268.628 268.628 274 262 274L12 274C5.37168 274 0 268.628 0 262L0 12C0 5.37168 5.37168 0 12 0L262 0Z" fill="#5865F2" />
      <path d="M262 0C268.628 0 274 5.37168 274 12L274 262C274 268.628 268.628 274 262 274L12 274C5.37167 274 0 268.628 0 262L0 12C0 5.37168 5.37167 0 12 0L262 0Z" fill="#5865F2" transform="translate(286 0)" />
      <path d="M262 0C268.628 0 274 5.37168 274 12L274 262C274 268.628 268.628 274 262 274L12 274C5.3717 274 0 268.628 0 262L0 12C0 5.37168 5.3717 0 12 0L262 0Z" fill="#5865F2" transform="translate(572 0)" />
      <path d="M262 0C268.628 0 274 5.37167 274 12L274 262C274 268.628 268.628 274 262 274L12 274C5.37168 274 0 268.628 0 262L0 12C0 5.37167 5.37168 0 12 0L262 0Z" fill="#5865F2" transform="translate(0 286)" />
      <path d="M262 0C268.628 0 274 5.37167 274 12L274 262C274 268.628 268.628 274 262 274L12 274C5.37167 274 0 268.628 0 262L0 12C0 5.37167 5.37167 0 12 0L262 0Z" fill="#5865F2" transform="translate(286 286)" />
      <path d="M262 0C268.628 0 274 5.37167 274 12L274 262C274 268.628 268.628 274 262 274L12 274C5.3717 274 0 268.628 0 262L0 12C0 5.37167 5.3717 0 12 0L262 0Z" fill="#5865F2" transform="translate(572 286)" />
      <path d="M262 0C268.628 0 274 5.3717 274 12L274 262C274 268.628 268.628 274 262 274L12 274C5.37168 274 0 268.628 0 262L0 12C0 5.3717 5.37168 0 12 0L262 0Z" fill="#5865F2" transform="translate(0 572)" />
      <path d="M262 0C268.628 0 274 5.3717 274 12L274 262C274 268.628 268.628 274 262 274L12 274C5.37167 274 0 268.628 0 262L0 12C0 5.3717 5.37167 0 12 0L262 0Z" fill="#5865F2" transform="translate(286 572)" />
      <path d="M262 0C268.628 0 274 5.3717 274 12L274 262C274 268.628 268.628 274 262 274L12 274C5.3717 274 0 268.628 0 262L0 12C0 5.3717 5.3717 0 12 0L262 0Z" fill="#5865F2" transform="translate(572 572)" />
    </g>
  </g>
</svg>