<?xml version="1.0" encoding="utf-8"?>
<svg width="1024" height="1024" viewBox="0 0 1024 1024" fill="none" xmlns="http://www.w3.org/2000/svg">
  <defs>
    <clipPath id="clip_path_1">
      <rect width="1024" height="1024" />
    </clipPath>
  </defs>
  <g clip-path="url(#clip_path_1)">
    <g>
      <path d="M331.65 0L331.65 0L331.65 331.65L0 331.65L0 184C0 82.3658 82.3658 0 184 0L331.65 0Z" fill="#00D3BB" />
      <rect width="331.65" height="331.65" fill="#00D3BB" fill-rule="evenodd" transform="translate(346.175 0)" />
      <path d="M147.65 0C249.284 0 331.65 82.3658 331.65 184L331.65 331.65L0 331.65L0 0L147.65 0Z" fill="#00D3BB" transform="translate(692.35 0)" />
      <rect width="331.65" height="331.65" fill="#00D3BB" fill-rule="evenodd" transform="translate(0 346.175)" />
      <rect width="331.65" height="331.65" fill="#00D3BB" fill-rule="evenodd" transform="translate(346.175 346.175)" />
      <rect width="331.65" height="331.65" fill="#00D3BB" fill-rule="evenodd" transform="translate(692.35 346.175)" />
      <path d="M331.65 0L331.65 0L331.65 331.65L184 331.65C82.3658 331.65 0 249.284 0 147.65L0 0L331.65 0Z" fill="#00D3BB" transform="translate(0 692.35)" />
      <rect width="331.65" height="331.65" fill="#00D3BB" fill-rule="evenodd" transform="translate(346.175 692.35)" />
      <path d="M331.65 0L331.65 0L331.65 147.65C331.65 249.284 249.284 331.65 147.65 331.65L0 331.65L0 0L331.65 0Z" fill="#00D3BB" transform="translate(692.35 692.35)" />
    </g>
  </g>
</svg>